SolveFromPy_states
version=1
nRows=4
nColumns=195
inDegrees=yes

# SIMM Motion File Header:
name SolveFromPy_states
datacolumns 195
datarows 4
otherdata 1
range 0.00000000 0.00676933
endheader
time	/jointset/ground_platform/platform_rx/value	/jointset/ground_platform/platform_rx/speed	/jointset/ground_platform/platform_ry/value	/jointset/ground_platform/platform_ry/speed	/jointset/ground_platform/platform_rz/value	/jointset/ground_platform/platform_rz/speed	/jointset/ground_platform/platform_ty/value	/jointset/ground_platform/platform_ty/speed	/jointset/ground_pelvis/pelvis_tilt/value	/jointset/ground_pelvis/pelvis_tilt/speed	/jointset/ground_pelvis/pelvis_list/value	/jointset/ground_pelvis/pelvis_list/speed	/jointset/ground_pelvis/pelvis_rotation/value	/jointset/ground_pelvis/pelvis_rotation/speed	/jointset/ground_pelvis/pelvis_tx/value	/jointset/ground_pelvis/pelvis_tx/speed	/jointset/ground_pelvis/pelvis_ty/value	/jointset/ground_pelvis/pelvis_ty/speed	/jointset/ground_pelvis/pelvis_tz/value	/jointset/ground_pelvis/pelvis_tz/speed	/jointset/hip_r/hip_flexion_r/value	/jointset/hip_r/hip_flexion_r/speed	/jointset/hip_r/hip_adduction_r/value	/jointset/hip_r/hip_adduction_r/speed	/jointset/hip_r/hip_rotation_r/value	/jointset/hip_r/hip_rotation_r/speed	/jointset/knee_r/knee_angle_r/value	/jointset/knee_r/knee_angle_r/speed	/jointset/ankle_r/ankle_angle_r/value	/jointset/ankle_r/ankle_angle_r/speed	/jointset/subtalar_r/subtalar_angle_r/value	/jointset/subtalar_r/subtalar_angle_r/speed	/jointset/mtp_r/mtp_angle_r/value	/jointset/mtp_r/mtp_angle_r/speed	/jointset/hip_l/hip_flexion_l/value	/jointset/hip_l/hip_flexion_l/speed	/jointset/hip_l/hip_adduction_l/value	/jointset/hip_l/hip_adduction_l/speed	/jointset/hip_l/hip_rotation_l/value	/jointset/hip_l/hip_rotation_l/speed	/jointset/knee_l/knee_angle_l/value	/jointset/knee_l/knee_angle_l/speed	/jointset/ankle_l/ankle_angle_l/value	/jointset/ankle_l/ankle_angle_l/speed	/jointset/subtalar_l/subtalar_angle_l/value	/jointset/subtalar_l/subtalar_angle_l/speed	/jointset/mtp_l/mtp_angle_l/value	/jointset/mtp_l/mtp_angle_l/speed	/jointset/back/lumbar_extension/value	/jointset/back/lumbar_extension/speed	/jointset/back/lumbar_bending/value	/jointset/back/lumbar_bending/speed	/jointset/back/lumbar_rotation/value	/jointset/back/lumbar_rotation/speed	/forceset/glut_med1_r/activation	/forceset/glut_med1_r/fiber_length	/forceset/glut_med2_r/activation	/forceset/glut_med2_r/fiber_length	/forceset/glut_med3_r/activation	/forceset/glut_med3_r/fiber_length	/forceset/bifemlh_r/activation	/forceset/bifemlh_r/fiber_length	/forceset/bifemsh_r/activation	/forceset/bifemsh_r/fiber_length	/forceset/sar_r/activation	/forceset/sar_r/fiber_length	/forceset/add_mag2_r/activation	/forceset/add_mag2_r/fiber_length	/forceset/tfl_r/activation	/forceset/tfl_r/fiber_length	/forceset/pect_r/activation	/forceset/pect_r/fiber_length	/forceset/grac_r/activation	/forceset/grac_r/fiber_length	/forceset/glut_max1_r/activation	/forceset/glut_max1_r/fiber_length	/forceset/glut_max2_r/activation	/forceset/glut_max2_r/fiber_length	/forceset/glut_max3_r/activation	/forceset/glut_max3_r/fiber_length	/forceset/iliacus_r/activation	/forceset/iliacus_r/fiber_length	/forceset/psoas_r/activation	/forceset/psoas_r/fiber_length	/forceset/quad_fem_r/activation	/forceset/quad_fem_r/fiber_length	/forceset/gem_r/activation	/forceset/gem_r/fiber_length	/forceset/peri_r/activation	/forceset/peri_r/fiber_length	/forceset/rect_fem_r/activation	/forceset/rect_fem_r/fiber_length	/forceset/vas_int_r/activation	/forceset/vas_int_r/fiber_length	/forceset/med_gas_r/activation	/forceset/med_gas_r/fiber_length	/forceset/lat_gas_r/activation	/forceset/lat_gas_r/fiber_length	/forceset/soleus_r/activation	/forceset/soleus_r/fiber_length	/forceset/tib_post_r/activation	/forceset/tib_post_r/fiber_length	/forceset/flex_dig_r/activation	/forceset/flex_dig_r/fiber_length	/forceset/flex_hal_r/activation	/forceset/flex_hal_r/fiber_length	/forceset/tib_ant_r/activation	/forceset/tib_ant_r/fiber_length	/forceset/per_brev_r/activation	/forceset/per_brev_r/fiber_length	/forceset/per_long_r/activation	/forceset/per_long_r/fiber_length	/forceset/per_tert_r/activation	/forceset/per_tert_r/fiber_length	/forceset/ext_dig_r/activation	/forceset/ext_dig_r/fiber_length	/forceset/ext_hal_r/activation	/forceset/ext_hal_r/fiber_length	/forceset/glut_med1_l/activation	/forceset/glut_med1_l/fiber_length	/forceset/glut_med2_l/activation	/forceset/glut_med2_l/fiber_length	/forceset/glut_med3_l/activation	/forceset/glut_med3_l/fiber_length	/forceset/bifemlh_l/activation	/forceset/bifemlh_l/fiber_length	/forceset/bifemsh_l/activation	/forceset/bifemsh_l/fiber_length	/forceset/sar_l/activation	/forceset/sar_l/fiber_length	/forceset/add_mag2_l/activation	/forceset/add_mag2_l/fiber_length	/forceset/tfl_l/activation	/forceset/tfl_l/fiber_length	/forceset/pect_l/activation	/forceset/pect_l/fiber_length	/forceset/grac_l/activation	/forceset/grac_l/fiber_length	/forceset/glut_max1_l/activation	/forceset/glut_max1_l/fiber_length	/forceset/glut_max2_l/activation	/forceset/glut_max2_l/fiber_length	/forceset/glut_max3_l/activation	/forceset/glut_max3_l/fiber_length	/forceset/iliacus_l/activation	/forceset/iliacus_l/fiber_length	/forceset/psoas_l/activation	/forceset/psoas_l/fiber_length	/forceset/quad_fem_l/activation	/forceset/quad_fem_l/fiber_length	/forceset/gem_l/activation	/forceset/gem_l/fiber_length	/forceset/peri_l/activation	/forceset/peri_l/fiber_length	/forceset/rect_fem_l/activation	/forceset/rect_fem_l/fiber_length	/forceset/vas_int_l/activation	/forceset/vas_int_l/fiber_length	/forceset/med_gas_l/activation	/forceset/med_gas_l/fiber_length	/forceset/lat_gas_l/activation	/forceset/lat_gas_l/fiber_length	/forceset/soleus_l/activation	/forceset/soleus_l/fiber_length	/forceset/tib_post_l/activation	/forceset/tib_post_l/fiber_length	/forceset/flex_dig_l/activation	/forceset/flex_dig_l/fiber_length	/forceset/flex_hal_l/activation	/forceset/flex_hal_l/fiber_length	/forceset/tib_ant_l/activation	/forceset/tib_ant_l/fiber_length	/forceset/per_brev_l/activation	/forceset/per_brev_l/fiber_length	/forceset/per_long_l/activation	/forceset/per_long_l/fiber_length	/forceset/per_tert_l/activation	/forceset/per_tert_l/fiber_length	/forceset/ext_dig_l/activation	/forceset/ext_dig_l/fiber_length	/forceset/ext_hal_l/activation	/forceset/ext_hal_l/fiber_length	/forceset/ercspn_r/activation	/forceset/ercspn_r/fiber_length	/forceset/ercspn_l/activation	/forceset/ercspn_l/fiber_length	/forceset/intobl_r/activation	/forceset/intobl_r/fiber_length	/forceset/intobl_l/activation	/forceset/intobl_l/fiber_length	/forceset/extobl_r/activation	/forceset/extobl_r/fiber_length	/forceset/extobl_l/activation	/forceset/extobl_l/fiber_length
      0.00000000	     20.00000000	      0.00000000	      0.00000000	      0.00000000	      0.00000000	      0.00000000	      0.25000000	      0.00000000	    -11.99999999	      0.00000000	      0.00000000	      0.00000000	      0.00000000	      0.00000000	      0.05000270	      0.00000000	      1.67000000	      0.00000000	      0.00000000	      0.00000000	     19.99999998	      0.00000000	     -0.99999986	      0.00000000	      4.99999985	      0.00000000	    -19.99999998	      0.00000000	     11.49999977	      0.00000000	     -0.03000064	      0.00000000	      0.00000000	      0.00000000	    -19.99999998	      0.00000000	     10.00000028	      0.00000000	      4.99999985	      0.00000000	   -119.99999986	      0.00000000	     11.49999977	      0.00000000	     -0.03000064	      0.00000000	      0.00000000	      0.00000000	      0.00000000	      0.00000000	      0.00000000	      0.00000000	      0.00000000	      0.00000000	      0.05000000	      0.04357575	      0.05000000	      0.08362391	      0.05000000	      0.06843766	      0.05000000	      0.10252054	      0.05000000	      0.16214763	      0.05000000	      0.44828157	      0.05000000	      0.08145199	      0.05000000	      0.09433646	      0.05000000	      0.06307802	      0.05000000	      0.30964682	      0.05000000	      0.09016565	      0.05000000	      0.10100256	      0.05000000	      0.11743733	      0.05000000	      0.09220087	      0.05000000	      0.08633896	      0.05000000	      0.05137182	      0.05000000	      0.02799630	      0.05000000	      0.02540625	      0.05000000	      0.09879678	      0.05000000	      0.08124441	      0.05000000	      0.09238399	      0.05000000	      0.06542811	      0.05000000	      0.08505025	      0.05000000	      0.03476839	      0.05000000	      0.03194333	      0.05000000	      0.04040403	      0.05000000	      0.07087162	      0.05000000	      0.04936739	      0.05000000	      0.04999319	      0.05000000	      0.07406410	      0.05000000	      0.08688528	      0.05000000	      0.09462792	      0.05000000	      0.04601551	      0.05000000	      0.07892451	      0.05000000	      0.06037764	      0.05000000	      0.02113236	      0.05000000	      0.12200186	      0.05000000	      0.45496511	      0.05000000	      0.05773534	      0.05000000	      0.13368846	      0.05000000	      0.07288697	      0.05000000	      0.24232005	      0.05000000	      0.06582572	      0.05000000	      0.06497935	      0.05000000	      0.05711646	      0.05000000	      0.11869224	      0.05000000	      0.11219124	      0.05000000	      0.04371493	      0.05000000	      0.02457077	      0.05000000	      0.02266386	      0.05000000	      0.18243637	      0.05000000	      0.13930721	      0.05000000	      0.06594925	      0.05000000	      0.03998752	      0.05000000	      0.08505025	      0.05000000	      0.03476839	      0.05000000	      0.03194333	      0.05000000	      0.04040403	      0.05000000	      0.07087162	      0.05000000	      0.04936739	      0.05000000	      0.04999319	      0.05000000	      0.07406410	      0.05000000	      0.08688528	      0.05000000	      0.09462792	      0.05000000	      0.11943514	      0.05000000	      0.11943514	      0.05000000	      0.09818663	      0.05000000	      0.09818663	      0.05000000	      0.13256617	      0.05000000	      0.13256617
      0.00181943	     20.00000000	     -0.00000000	     -0.00000000	     -0.00000000	      0.00000000	      0.00000000	      0.25000000	     -0.00000000	    -11.99896974	      1.12937281	     -0.00063591	     -0.69307420	      0.00063097	      0.69149104	      0.05000328	      0.00063386	      1.66998825	     -0.01293662	     -0.00000389	     -0.00424754	     19.99593468	     -4.45264445	     -1.00204149	     -2.23541903	      4.99121012	     -9.60785634	    -19.99082974	     10.03302000	     11.46759591	    -35.38780367	     -0.00721122	     24.95927726	      0.00000000	      0.00000000	    -19.99999998	     -0.00000000	     10.00000028	     -0.00000000	      4.99999985	      0.00000000	   -119.99999986	      0.00000000	     11.49999977	      0.00000000	     -0.03000064	      0.00000000	     -0.00000000	     -0.00000000	     -0.00126294	     -1.38414483	      0.00109389	      1.19264059	     -0.00054646	     -0.59880032	      0.04871139	      0.04357627	      0.04871139	      0.08362447	      0.04871139	      0.06843787	      0.04871139	      0.10252142	      0.04871139	      0.16214931	      0.04871139	      0.44828565	      0.04871139	      0.08145291	      0.04871139	      0.09433725	      0.04871139	      0.06307914	      0.04871139	      0.30964988	      0.04871139	      0.09016648	      0.04871139	      0.10100336	      0.04871139	      0.11743816	      0.04871139	      0.09220182	      0.04871139	      0.08633985	      0.04871139	      0.05137145	      0.04871139	      0.02799624	      0.04871139	      0.02540642	      0.04871139	      0.09879761	      0.04871139	      0.08124495	      0.04871139	      0.09238447	      0.04871139	      0.06542845	      0.04871139	      0.08505043	      0.04871139	      0.03476857	      0.04871139	      0.03194356	      0.04871139	      0.04040431	      0.04871139	      0.07087279	      0.04871139	      0.04936792	      0.04871139	      0.04999363	      0.04871139	      0.07406546	      0.04871139	      0.08688645	      0.04871139	      0.09462916	      0.04871139	      0.04601593	      0.04871139	      0.07892516	      0.04871139	      0.06037814	      0.04871139	      0.02113322	      0.04871139	      0.12200312	      0.04871139	      0.45496853	      0.04871139	      0.05773627	      0.04871139	      0.13368918	      0.04871139	      0.07288768	      0.04871139	      0.24232258	      0.04871139	      0.06582680	      0.04871139	      0.06498047	      0.04871139	      0.05711756	      0.04871139	      0.11869299	      0.04871139	      0.11219202	      0.04871139	      0.04371533	      0.04871139	      0.02457096	      0.04871139	      0.02266407	      0.04871139	      0.18243712	      0.04871139	      0.13930797	      0.04871139	      0.06594997	      0.04871139	      0.03998803	      0.04871139	      0.08505089	      0.04871139	      0.03476864	      0.04871139	      0.03194360	      0.04871139	      0.04040438	      0.04871139	      0.07087240	      0.04871139	      0.04936779	      0.04871139	      0.04999359	      0.04871139	      0.07406471	      0.04871139	      0.08688609	      0.04871139	      0.09462880	      0.04871139	      0.11943601	      0.04871139	      0.11943621	      0.04871139	      0.09818727	      0.04871139	      0.09818745	      0.04871139	      0.13256699	      0.04871139	      0.13256707
      0.00429438	     20.00000000	     -0.00000000	     -0.00000000	     -0.00000000	     -0.00000000	     -0.00000000	      0.25000000	     -0.00000000	    -11.99432855	      2.60477432	     -0.00341878	     -1.52693202	      0.00347155	      1.59422425	      0.05000590	      0.00148155	      1.66993408	     -0.03094908	     -0.00002117	     -0.00961040	     19.97770445	    -10.19395259	     -1.01120069	     -5.12722156	      4.95213367	    -21.71994229	    -19.94993636	     22.76558159	     11.32447138	    -79.06416996	      0.09531069	     57.53787226	      0.00000000	      0.00000000	    -19.99999998	      0.00000000	     10.00000028	     -0.00000000	      4.99999985	      0.00000000	   -119.99999986	     -0.00000000	     11.49999977	     -0.00000000	     -0.03000064	      0.00000000	     -0.00000000	     -0.00000000	     -0.00694595	     -3.18666680	      0.00589144	      2.63743245	     -0.00300629	     -1.38069977	      0.04701817	      0.04357949	      0.04701817	      0.08362617	      0.04701817	      0.06843571	      0.04701817	      0.10252557	      0.04701817	      0.16215929	      0.04701817	      0.44830393	      0.04701817	      0.08145684	      0.04701817	      0.09434116	      0.04701817	      0.06308660	      0.04701817	      0.30966585	      0.04701817	      0.09016809	      0.04701817	      0.10100439	      0.04701817	      0.11743964	      0.04701817	      0.09220742	      0.04701817	      0.08634473	      0.04701817	      0.05136285	      0.04701817	      0.02799324	      0.04701817	      0.02540687	      0.04701817	      0.09880079	      0.04701817	      0.08124507	      0.04701817	      0.09238469	      0.04701817	      0.06542862	      0.04701817	      0.08504569	      0.04701817	      0.03476879	      0.04701817	      0.03194428	      0.04701817	      0.04040509	      0.04701817	      0.07088186	      0.04701817	      0.04937155	      0.04701817	      0.04999606	      0.04701817	      0.07408015	      0.04701817	      0.08689524	      0.04701817	      0.09463825	      0.04701817	      0.04601784	      0.04701817	      0.07892788	      0.04701817	      0.06038028	      0.04701817	      0.02113718	      0.04701817	      0.12200811	      0.04701817	      0.45498010	      0.04701817	      0.05774034	      0.04701817	      0.13369220	      0.04701817	      0.07289040	      0.04701817	      0.24233236	      0.04701817	      0.06583148	      0.04701817	      0.06498530	      0.04701817	      0.05712235	      0.04701817	      0.11869613	      0.04701817	      0.11219551	      0.04701817	      0.04371694	      0.04701817	      0.02457182	      0.04701817	      0.02266505	      0.04701817	      0.18243964	      0.04701817	      0.13931091	      0.04701817	      0.06595335	      0.04701817	      0.03999046	      0.04701817	      0.08505382	      0.04701817	      0.03476983	      0.04701817	      0.03194491	      0.04701817	      0.04040603	      0.04701817	      0.07087600	      0.04701817	      0.04936966	      0.04701817	      0.04999546	      0.04701817	      0.07406750	      0.04701817	      0.08688991	      0.04701817	      0.09463293	      0.04701817	      0.11943953	      0.04701817	      0.11944182	      0.04701817	      0.09818907	      0.04701817	      0.09819140	      0.04701817	      0.13256977	      0.04701817	      0.13257089
      0.00676933	     20.00000000	     -0.00000000	     -0.00000000	     -0.00000000	     -0.00000000	     -0.00000000	      0.25000000	     -0.00000000	    -11.98617843	      3.95800280	     -0.00801719	     -2.14909393	      0.00846480	      2.42803572	      0.05001059	      0.00230536	      1.66983435	     -0.04980216	     -0.00005079	     -0.01417192	     19.94600194	    -15.30539863	     -1.02717402	     -7.72095560	      4.88523062	    -31.99187889	    -19.87968084	     33.65579116	     11.08382213	   -113.65774091	      0.27529553	     87.31682358	      0.00000000	      0.00000000	    -19.99999998	      0.00000000	     10.00000028	     -0.00000000	      4.99999985	      0.00000000	   -119.99999986	     -0.00000000	     11.49999977	     -0.00000000	     -0.03000064	     -0.00000000	     -0.00000000	     -0.00000000	     -0.01690141	     -4.82728940	      0.01386150	      3.73799979	     -0.00733235	     -2.10438358	      0.04539080	      0.04358748	      0.04539080	      0.08362762	      0.04539080	      0.06842519	      0.04539080	      0.10253336	      0.04539080	      0.16218202	      0.04539080	      0.44833597	      0.04539080	      0.08146329	      0.04539080	      0.09434902	      0.04539080	      0.06310456	      0.04539080	      0.30969798	      0.04539080	      0.09016584	      0.04539080	      0.10099906	      0.04539080	      0.11743641	      0.04539080	      0.09222071	      0.04539080	      0.08635560	      0.04539080	      0.05133697	      0.04539080	      0.02798209	      0.04539080	      0.02540699	      0.04539080	      0.09880519	      0.04539080	      0.08123835	      0.04539080	      0.09237897	      0.04539080	      0.06542454	      0.04539080	      0.08502412	      0.04539080	      0.03476735	      0.04539080	      0.03194487	      0.04539080	      0.04040543	      0.04539080	      0.07091057	      0.04539080	      0.04938201	      0.04539080	      0.05000167	      0.04539080	      0.07415276	      0.04539080	      0.08692276	      0.04539080	      0.09466548	      0.04539080	      0.04602124	      0.04539080	      0.07893234	      0.04539080	      0.06038388	      0.04539080	      0.02114430	      0.04539080	      0.12201567	      0.04539080	      0.45499515	      0.04539080	      0.05774724	      0.04539080	      0.13369708	      0.04539080	      0.07289437	      0.04539080	      0.24234680	      0.04539080	      0.06583926	      0.04539080	      0.06499333	      0.04539080	      0.05713037	      0.04539080	      0.11870119	      0.04539080	      0.11220162	      0.04539080	      0.04371943	      0.04539080	      0.02457336	      0.04539080	      0.02266689	      0.04539080	      0.18244286	      0.04539080	      0.13931520	      0.04539080	      0.06595962	      0.04539080	      0.03999503	      0.04539080	      0.08505917	      0.04539080	      0.03477206	      0.04539080	      0.03194740	      0.04539080	      0.04040916	      0.04539080	      0.07088257	      0.04539080	      0.04937314	      0.04539080	      0.04999898	      0.04539080	      0.07407239	      0.04539080	      0.08689701	      0.04539080	      0.09464053	      0.04539080	      0.11944515	      0.04539080	      0.11945299	      0.04539080	      0.09819013	      0.04539080	      0.09819890	      0.04539080	      0.13257286	      0.04539080	      0.13257698
